<?xml version="1.0" encoding="UTF-8" standalone="no"?>
<!-- Created with Inkscape (http://www.inkscape.org/) -->

<svg
   width="1024"
   height="1024"
   viewBox="0 0 270.93333 270.93334"
   version="1.1"
   id="svg5"
   sodipodi:docname="New document 1.2023_01_08_10_50_17.0.svg"
   inkscape:version="1.1 (c4e8f9e, 2021-05-24)"
   xmlns:inkscape="http://www.inkscape.org/namespaces/inkscape"
   xmlns:sodipodi="http://sodipodi.sourceforge.net/DTD/sodipodi-0.dtd"
   xmlns="http://www.w3.org/2000/svg"
   xmlns:svg="http://www.w3.org/2000/svg">
  <sodipodi:namedview
     id="namedview7"
     pagecolor="#505050"
     bordercolor="#eeeeee"
     borderopacity="1"
     inkscape:pageshadow="0"
     inkscape:pageopacity="0"
     inkscape:pagecheckerboard="0"
     inkscape:document-units="px"
     showgrid="false"
     units="px"
     inkscape:zoom="0.76"
     inkscape:cx="436.18421"
     inkscape:cy="532.23684"
     inkscape:window-width="1920"
     inkscape:window-height="1027"
     inkscape:window-x="0"
     inkscape:window-y="25"
     inkscape:window-maximized="1"
     inkscape:current-layer="layer1" />
  <defs
     id="defs2" />
  <g
     inkscape:label="Layer 1"
     inkscape:groupmode="layer"
     id="layer1">
    <rect
       style="fill:#ff8200;stroke-width:0.39167;fill-opacity:1"
       id="rect31"
       width="270.93335"
       height="270.93335"
       x="0"
       y="-3.5527137e-15"
       inkscape:export-filename="/Users/Jonas/Desktop/AppIconCounter.png"
       inkscape:export-xdpi="96"
       inkscape:export-ydpi="96" />
    <path
       style="fill:#000000;fill-opacity:1;stroke:none;stroke-width:75.4338px;stroke-linecap:butt;stroke-linejoin:miter;stroke-opacity:1"
       d="M 0,270.93333 V 0 h 270.93333 z"
       id="path1141" />
    <g
       id="Regular-S"
       transform="matrix(1.243764,0,0,1.2428134,141.31221,236.95986)">
      <path
         class="monochrome-0 multicolor-0:systemGreenColor SFSymbolsPreview28CD41"
         d="m 9.76562,-35.2539 c 0,2.1484 1.80668,3.9551 3.95508,3.9551 h 24.0234 v 24.02341 c 0,2.09961 1.8067,3.95508 3.9551,3.95508 2.1485,0 3.9063,-1.85547 3.9063,-3.95508 V -31.2988 h 24.0722 c 2.0996,0 3.9063,-1.8067 3.9063,-3.9551 0,-2.1484 -1.8067,-3.9551 -3.9063,-3.9551 H 45.6055 v -24.0234 c 0,-2.0996 -1.7578,-3.9551 -3.9063,-3.9551 -2.1484,0 -3.9551,1.8555 -3.9551,3.9551 V -39.209 H 13.7207 c -2.1484,0 -3.95508,1.8067 -3.95508,3.9551 z"
         id="path1716" />
    </g>
    <rect
       style="fill:#ff8200;fill-opacity:1;stroke-width:0.277762"
       id="rect847"
       width="79.375"
       height="9.8054581"
       x="38.099998"
       y="72.892708"
       ry="4.902729" />
  </g>
</svg>
